<?xml version="1.0" encoding="utf-8"?>
<!-- Generator: Adobe Illustrator 17.1.0, SVG Export Plug-In . SVG Version: 6.00 Build 0)  -->
<!DOCTYPE svg PUBLIC "-//W3C//DTD SVG 1.1//EN" "http://www.w3.org/Graphics/SVG/1.1/DTD/svg11.dtd">
<svg version="1.1" id="Layer_1" xmlns="http://www.w3.org/2000/svg" xmlns:xlink="http://www.w3.org/1999/xlink" x="0px" y="0px"
	 viewBox="-319.9 326.4 1291.2 605.5" enable-background="new -319.9 326.4 1291.2 605.5" xml:space="preserve">
<g>
	<g>
		<g>
			<path fill="#FFFFFF" d="M134.7,552.9c21.5,11,43.5,18.8,66.3,23.5c0.3,9.3-0.4,18.5-1.6,27.7c-3.9,27.5-12.4,53-25.4,76.7
				c-13.1,23.8-27.7,45.3-44,64.9c-16.2,19.6-32.7,36.5-49.4,51.3c-16.7,14.6-30.4,26.2-41,34.9L0,864.5l-319.9-389.8l39.7-32.6
				c11.3-9.3,23.5-19.1,36.6-29.5c13.1-10.4,27-20.6,42-30.5c15-9.9,30.6-18.9,47-27.1c16.4-8.1,33.6-14.7,51.2-19.8
				c16-4.2,33.7-7,53-8.4c16.4-1.1,33.4,0.3,51,4.2c0,23.7,3.5,47.3,10.1,70.9c9.1,32,24.7,61.4,46.7,88.2
				C79.4,516.9,105.2,537.9,134.7,552.9z"/>
		</g>
	</g>
	<g>
		<g>
			<path fill="#FFFFFF" d="M879.4,875c-26.9,22-56.2,37.7-88.1,46.6c-32,9.1-63.8,12.1-95.9,9.1c-32-3.1-62.9-12.1-92.4-27.1
				c-29.6-15.1-55.4-36.1-77.4-63c-22-26.9-37.7-56.2-46.6-88.1c-9.1-32-11.9-64-8.6-95.9c1-8.8,2.3-17.5,4.1-26.1
				c19,0.1,38.6-2.7,58.7-8.2c30.3-8.2,61.6-25.8,94.1-52.4c26.6-21.8,46.8-43.6,60.8-65.9c14.1-22.2,23.9-43.6,29.6-64.6
				c0.9-3.2,1.7-6.2,2.2-9.3c8.3,0,16.8,0.3,25.2,1c31.9,3,62.8,12,92.3,27.2c29.5,15,55.4,36,77.4,62.8
				c22,26.8,37.5,56.3,46.6,88.3c9.1,31.8,11.9,63.8,8.7,95.8c-3.3,32.1-12.6,62.7-27.7,92.3C927.3,827.2,906.2,852.9,879.4,875z"/>
		</g>
	</g>
	<g>
		<path fill="#FFFFFF" d="M171.7,456.6v-28l53.3-73.3h44.7v73.6h19.1v27.9h-19.1v32.3h-42.6v-32.5H171.7z M201.2,428.8h26v-39.6
			L201.2,428.8z"/>
		<path fill="#FFFFFF" d="M411,374c10.8,13,16.2,28.8,16.2,47.5c0,18.6-5.4,34.5-16.1,47.7c-11.7,14.4-27.2,21.6-46.6,21.6
			c-9.9,0-18.7-1.9-26.5-5.6c-7.7-3.7-14.3-8.7-19.7-15.1s-9.5-13.7-12.3-22.1c-2.8-8.4-4.2-17.2-4.2-26.5c0-7.3,0.8-14.1,2.3-20.3
			s3.8-11.9,6.6-17c2.8-5.1,6.2-9.6,10.1-13.6c3.9-3.9,8.1-7.2,12.8-9.9c4.7-2.7,9.6-4.7,14.8-6.1c5.2-1.4,10.6-2.1,16.1-2.1
			C383.6,352.4,399.1,359.6,411,374z M344.2,408.4c-0.4,2.1-0.7,4.3-0.9,6.5c-0.2,2.2-0.3,4.4-0.3,6.6c0,4.5,0.5,8.9,1.4,13.2
			c0.9,4.3,2.3,8.2,4.1,11.6c1.8,3.4,4,6.1,6.7,8.2c2.7,2.1,5.8,3.1,9.4,3.1c3,0,5.8-0.9,8.4-2.7c2.6-1.8,4.9-4.3,6.8-7.5
			c1.9-3.2,3.4-7,4.5-11.4c1.1-4.4,1.7-9.2,1.7-14.5c0-4.8-0.5-9.3-1.4-13.6c-0.9-4.3-2.3-8.1-4.1-11.4c-1.8-3.3-4-5.9-6.7-7.9
			c-2.7-2-5.7-2.9-9.2-2.9c-3.2,0-5.9,0.7-8.3,2.1c-2.3,1.4-4.3,3.2-5.9,5.4c-1.6,2.2-2.9,4.7-3.9,7.4
			C345.6,403.2,344.8,405.9,344.2,408.4z"/>
		<path fill="#FFFFFF" d="M437.4,456.6v-28l53.3-73.3h44.7v73.6h19.1v27.9h-19.1v32.3h-42.6v-32.5H437.4z M466.8,428.8h26v-39.6
			L466.8,428.8z"/>
	</g>
</g>
</svg>
