<?xml version="1.0" encoding="utf-8"?>
<!-- Generator: Adobe Illustrator 17.1.0, SVG Export Plug-In . SVG Version: 6.00 Build 0)  -->
<!DOCTYPE svg PUBLIC "-//W3C//DTD SVG 1.1//EN" "http://www.w3.org/Graphics/SVG/1.1/DTD/svg11.dtd">
<svg version="1.1" id="Layer_1" xmlns="http://www.w3.org/2000/svg" xmlns:xlink="http://www.w3.org/1999/xlink" x="0px" y="0px"
	 viewBox="0 0 784 1224" enable-background="new 0 0 784 1224" xml:space="preserve">
<g>
	<path fill="rgba(216,216,216,0.25)" d="M681.247,471.501H106.461c-1.813,0-3.626-0.31-5.341-0.898c-27.375-9.473-45.243-26.28-53.083-49.964
		C28.975,363.031,80.605,286.281,82.81,283.047C186.314,149.799,305.417,122,387.214,122c159.936,0,299.112,102.916,336.336,198.27
		c21.201,54.341,23.063,95.664,5.553,122.827c-13.622,21.152-35.933,27.799-46.975,28.404
		C681.835,471.484,681.541,471.501,681.247,471.501z M109.319,438.834h571.177c2.27-0.278,14.177-2.254,21.413-13.867
		c10.878-17.444,7.758-50.421-8.787-92.839c-33.451-85.701-164.362-177.462-305.907-177.462
		c-74.496,0-183.195,25.611-277.993,147.604C97.33,319.846,67.424,375.33,79.07,410.414
		C83.382,423.432,93.296,432.742,109.319,438.834z"/>
	<path fill="rgba(216,216,216,0.25)" d="M657.123,906H127.645c-44.198,0-80.148-50.209-80.148-111.949v-10.747c0-9.032,7.317-16.333,16.333-16.333h657.09
		c9.032,0,16.333,7.301,16.333,16.333v10.747C737.27,855.791,701.321,906,657.123,906z M80.295,799.637
		c1.846,39.87,23.177,73.696,47.35,73.696h529.478c24.157,0,45.488-33.826,47.334-73.696H80.295z"/>
	<path fill="rgba(216,216,216,0.25)" d="M399.35,621.147c-30.249,0-60.613-10.976-90.356-32.667c-28.436-20.76-50.944-30.151-72.994-30.445l-1.731-0.033
		c-12.283-0.163-20.204-0.131-26.77,4.394c-3.332,2.303-6.795,5.668-10.453,9.228c-4.1,4.018-8.363,8.167-13.393,11.825
		c-42.418,30.739-107.963,50.552-179.503-29.335c-6.011-6.713-5.439-17.052,1.274-23.063c6.746-6.027,17.036-5.439,23.063,1.274
		c45.015,50.29,89.507,58.326,135.991,24.68c3.103-2.254,6.337-5.406,9.751-8.738c4.475-4.377,9.114-8.902,14.716-12.756
		c15.5-10.698,32.389-10.372,45.913-10.159l1.65,0.033c37.42,0.523,68.682,19.91,91.728,36.734
		c25.464,18.571,50.993,27.424,75.297,26.28c18.587-0.849,39.331-14.52,59.404-27.718c11.27-7.415,22.948-15.108,34.725-20.89
		c28.404-13.932,55.893-12.266,79.494,4.704c5.798,4.181,11.613,8.722,17.46,13.328c12.315,9.669,25.055,19.682,37.354,25.382
		c20.498,9.457,46.272,3.169,68.976-16.872c4.459-3.936,8.444-7.938,12.217-11.744c13.916-13.949,28.289-28.387,54.014-29.188
		c8.787-0.784,16.562,6.778,16.823,15.811c0.294,9.016-6.778,16.562-15.811,16.823c-12.201,0.392-18.963,6.648-31.883,19.616
		c-4.247,4.263-8.722,8.722-13.736,13.165c-32.732,28.91-71.72,37.093-104.321,22.034c-15.762-7.285-30.021-18.506-43.822-29.335
		c-5.504-4.312-10.943-8.591-16.382-12.511c-13.785-9.931-28.404-10.519-45.995-1.895c-9.931,4.884-20.237,11.678-31.164,18.865
		c-23.749,15.631-48.314,31.801-75.868,33.059C403.156,621.098,401.245,621.147,399.35,621.147z"/>
	<path fill="rgba(216,216,216,0.25)" d="M755.858,703.712H28.91c-9.016,0-16.333-7.301-16.333-16.333s7.317-16.333,16.333-16.333h726.948
		c9.032,0,16.333,7.301,16.333,16.333S764.89,703.712,755.858,703.712z"/>
</g>
</svg>
