<?xml version="1.0" encoding="utf-8"?>
<!-- Generator: Adobe Illustrator 17.1.0, SVG Export Plug-In . SVG Version: 6.00 Build 0)  -->
<!DOCTYPE svg PUBLIC "-//W3C//DTD SVG 1.1//EN" "http://www.w3.org/Graphics/SVG/1.1/DTD/svg11.dtd">
<svg version="1.1" id="Layer_1" xmlns="http://www.w3.org/2000/svg" xmlns:xlink="http://www.w3.org/1999/xlink" x="0px" y="0px"
	 viewBox="0 0 317.27 204.328" enable-background="new 0 0 317.27 204.328" xml:space="preserve">
<g>
	<g>
		<g>
			<path fill="#FFFFFF" d="M122.12,141.452c3.908,8.959,8.797,17.048,14.715,24.379c-2.28,2.985-4.884,5.7-7.599,8.254
				c-8.256,7.601-17.488,13.413-27.643,17.486c-10.207,4.072-20.304,7.058-30.405,9.012c-10.101,1.956-19.604,3.041-28.619,3.367
				c-8.956,0.27-16.237,0.379-21.772,0.379H0V0.273h20.797c5.918,0,12.27,0.053,19.005,0.162c6.787,0.109,13.739,0.488,20.961,1.249
				c7.217,0.761,14.439,1.954,21.662,3.584c7.222,1.684,14.28,4.017,21.126,6.949c6.082,2.771,12.323,6.462,18.729,10.968
				c5.43,3.855,10.372,8.688,14.879,14.389c-6.082,7.44-11.072,15.694-15.038,24.761c-5.377,12.326-8.039,25.522-8.039,39.584
				C114.082,115.983,116.744,129.179,122.12,141.452z"/>
		</g>
	</g>
	<g>
		<g>
			<path fill="#FFFFFF" d="M317.27,101.92c0,14.063-2.657,27.259-8.034,39.532c-5.377,12.326-12.594,23.077-21.773,32.362
				c-9.179,9.229-19.933,16.56-32.203,21.937c-12.323,5.375-25.521,8.036-39.579,8.036c-14.063,0-27.261-2.662-39.532-8.036
				c-12.329-5.377-23.077-12.708-32.203-21.937c-2.492-2.553-4.884-5.213-7.111-7.983c4.884-5.918,9.067-12.761,12.488-20.471
				c5.212-11.565,7.763-25.901,7.763-42.896c0-13.901-1.623-25.848-4.996-35.947c-3.309-10.099-7.487-18.678-12.594-25.845
				c-0.758-1.087-1.522-2.119-2.339-3.097c2.121-2.606,4.401-5.157,6.787-7.601c9.126-9.229,19.875-16.56,32.203-21.881
				C188.42,2.715,201.618,0,215.681,0c14.057,0,27.255,2.715,39.579,8.092c12.27,5.321,23.024,12.652,32.203,21.881
				c9.179,9.285,16.396,20.036,21.773,32.362C314.613,74.662,317.27,87.858,317.27,101.92z"/>
		</g>
	</g>
</g>
</svg>
