<?xml version="1.0" encoding="utf-8"?>
<!-- Generator: Adobe Illustrator 17.1.0, SVG Export Plug-In . SVG Version: 6.00 Build 0)  -->
<!DOCTYPE svg PUBLIC "-//W3C//DTD SVG 1.1//EN" "http://www.w3.org/Graphics/SVG/1.1/DTD/svg11.dtd">
<svg version="1.1" id="Layer_1" xmlns="http://www.w3.org/2000/svg" xmlns:xlink="http://www.w3.org/1999/xlink" x="0px" y="0px"
	 viewBox="354.6 0 514.8 633.6" enable-background="new 354.6 0 514.8 633.6" xml:space="preserve">
<g>
	<g>
		<g>
			<path fill="#5B5B5B" d="M869.4,633.6V0H354.6v633.6H869.4z M374.4,19.8h475.2v594H374.4V19.8z"/>
			<rect x="709.7" y="462.8" fill="#5B5B5B" width="55.2" height="15.7"/>
			<rect x="485.4" y="465.2" fill="#5B5B5B" width="55.2" height="15.7"/>
			<rect x="485.4" y="518" fill="#5B5B5B" width="55.2" height="15.7"/>
			<rect x="670.1" y="438.9" fill="#5B5B5B" width="28.9" height="15.7"/>
			<rect x="604.1" y="438.9" fill="#5B5B5B" width="28.8" height="15.7"/>
			<rect x="577.8" y="518" fill="#5B5B5B" width="42" height="15.7"/>
			<rect x="564.6" y="465.2" fill="#5B5B5B" width="55.2" height="15.7"/>
			<rect x="630.5" y="465.2" fill="#5B5B5B" width="55.2" height="15.7"/>
			<rect x="500.4" y="494.2" fill="#5B5B5B" width="52.1" height="15.7"/>
			<rect x="485.4" y="544.4" fill="#5B5B5B" width="134.4" height="15.7"/>
			<rect x="656.9" y="544.4" fill="#5B5B5B" width="55.2" height="15.7"/>
			<rect x="485.4" y="438.9" fill="#5B5B5B" width="81.6" height="15.7"/>
			<rect x="736" y="150.2" fill="#5B5B5B" width="28.9" height="15.7"/>
			<rect x="485.4" y="99.9" fill="#5B5B5B" width="55.2" height="15.7"/>
			<rect x="498.6" y="126.3" fill="#5B5B5B" width="28.8" height="15.7"/>
			<rect x="630.5" y="152.7" fill="#5B5B5B" width="68.4" height="15.7"/>
			<rect x="643.7" y="179.1" fill="#5B5B5B" width="55.2" height="15.7"/>
			<rect x="534.7" y="73.6" fill="#5B5B5B" width="111.5" height="15.7"/>
			<rect x="577.8" y="152.7" fill="#5B5B5B" width="28.9" height="15.7"/>
			<rect x="591" y="179.1" fill="#5B5B5B" width="28.8" height="15.7"/>
			<rect x="577.8" y="99.9" fill="#5B5B5B" width="81.6" height="15.7"/>
			<rect x="551.4" y="126.3" fill="#5B5B5B" width="81.6" height="15.7"/>
			<rect x="472.3" y="152.7" fill="#5B5B5B" width="81.6" height="15.7"/>
			<rect x="459.1" y="179.1" fill="#5B5B5B" width="81.6" height="15.7"/>
		</g>
	</g>
	<g>
		<path fill="#5B5B5B" d="M445.8,316.1c-1.6,0.8-3.3,1.4-5.1,1.8c1.9,0.4,3.6,1,5.1,1.8L464,329c0.8,0.4,1.3,0.8,1.7,1.4
			c0.3,0.6,0.5,1.2,0.5,1.9v8.8l-39.7-20.7v-5l39.7-20.6v8.8c0,0.7-0.2,1.3-0.5,1.8c-0.3,0.6-0.9,1-1.7,1.4L445.8,316.1z"/>
		<path fill="#5B5B5B" d="M491.6,351.7c-0.6,1.5-1.5,2.7-2.7,3.5c-1.2,0.8-2.5,1.1-3.8,1.1h-5.2l29.2-74.7c0.5-1.4,1.4-2.5,2.4-3.2
			c1.1-0.8,2.4-1.1,3.9-1.1h5.3L491.6,351.7z"/>
		<path fill="#5B5B5B" d="M602.9,300.3l-16.3,51.3h-9.9c-1.1,0-1.9-0.7-2.4-2.2l-9.2-29.6c-0.3-1-0.6-2-0.8-3c-0.2-1-0.5-2-0.6-3
			c-0.2,1-0.4,2-0.7,3c-0.2,1-0.5,2-0.8,3l-9.4,29.5c-0.4,1.5-1.3,2.2-2.6,2.2h-9.5l-16.2-51.3h9.9c0.9,0,1.7,0.2,2.3,0.6
			c0.6,0.4,1.1,1,1.2,1.6l7.4,27.4c0.4,1.5,0.7,3,1,4.4c0.3,1.4,0.5,2.9,0.7,4.3c0.4-1.4,0.8-2.9,1.2-4.3c0.4-1.4,0.9-2.9,1.3-4.4
			l8.5-27.5c0.2-0.7,0.6-1.2,1.2-1.6c0.6-0.4,1.3-0.6,2.1-0.6h5.5c0.9,0,1.6,0.2,2.2,0.6c0.6,0.4,1,1,1.2,1.6l8.2,27.5
			c0.4,1.5,0.8,3,1.2,4.4c0.4,1.4,0.8,2.9,1.1,4.3c0.4-2.8,1.1-5.8,1.9-8.8l7.5-27.4c0.2-0.7,0.7-1.2,1.2-1.6
			c0.6-0.4,1.3-0.6,2.2-0.6H602.9z"/>
		<path fill="#5B5B5B" d="M653.6,277.3v74.3H646c-1.6,0-2.7-0.8-3.1-2.2l-1-5c-2.1,2.4-4.4,4.3-7.1,5.8c-2.7,1.5-5.8,2.2-9.4,2.2
			c-2.8,0-5.4-0.6-7.7-1.8s-4.3-2.9-6-5.1c-1.7-2.2-3-5-3.9-8.2c-0.9-3.3-1.4-7-1.4-11.2c0-3.8,0.5-7.3,1.5-10.6
			c1-3.3,2.5-6.1,4.5-8.5c1.9-2.4,4.2-4.3,7-5.6s5.7-2,9.1-2c2.9,0,5.3,0.5,7.4,1.4c2,0.9,3.8,2.1,5.4,3.6v-27H653.6z M641.2,313.4
			c-1.4-1.7-2.9-2.9-4.6-3.6c-1.7-0.7-3.4-1.1-5.3-1.1c-1.9,0-3.5,0.4-5,1.1c-1.5,0.7-2.8,1.8-3.9,3.2c-1.1,1.4-1.9,3.2-2.5,5.4
			c-0.6,2.2-0.8,4.8-0.8,7.7c0,3,0.2,5.5,0.7,7.6c0.5,2.1,1.2,3.8,2.1,5.1c0.9,1.3,2,2.3,3.3,2.9c1.3,0.6,2.8,0.9,4.4,0.9
			c2.6,0,4.8-0.5,6.5-1.6c1.8-1.1,3.5-2.6,5.1-4.6V313.4z"/>
		<path fill="#5B5B5B" d="M739,300.3l-16.3,51.3h-9.9c-1.1,0-1.9-0.7-2.4-2.2l-9.2-29.6c-0.3-1-0.6-2-0.8-3c-0.2-1-0.5-2-0.6-3
			c-0.2,1-0.4,2-0.7,3c-0.2,1-0.5,2-0.8,3l-9.4,29.5c-0.4,1.5-1.3,2.2-2.6,2.2h-9.5l-16.2-51.3h9.8c0.9,0,1.7,0.2,2.3,0.6
			c0.6,0.4,1.1,1,1.2,1.6l7.4,27.4c0.4,1.5,0.7,3,1,4.4c0.3,1.4,0.5,2.9,0.7,4.3c0.4-1.4,0.8-2.9,1.2-4.3c0.4-1.4,0.9-2.9,1.3-4.4
			l8.5-27.5c0.2-0.7,0.6-1.2,1.2-1.6c0.6-0.4,1.3-0.6,2.1-0.6h5.5c0.9,0,1.6,0.2,2.2,0.6c0.6,0.4,1,1,1.2,1.6l8.2,27.5
			c0.4,1.5,0.8,3,1.2,4.4c0.4,1.4,0.8,2.9,1.1,4.3c0.4-2.8,1-5.8,1.8-8.8l7.5-27.4c0.2-0.7,0.7-1.2,1.2-1.6c0.6-0.4,1.3-0.6,2.2-0.6
			H739z"/>
		<path fill="#5B5B5B" d="M790.4,315.4v5l-39.7,20.7v-8.8c0-0.7,0.2-1.3,0.5-1.9c0.3-0.6,0.9-1,1.7-1.4l18.2-9.4
			c1.6-0.8,3.3-1.4,5.1-1.8c-1.9-0.4-3.6-1-5.1-1.8l-18.2-9.3c-0.8-0.4-1.3-0.9-1.7-1.4c-0.3-0.5-0.5-1.2-0.5-1.8v-8.8L790.4,315.4z
			"/>
	</g>
</g>
</svg>
